<svg width="166" height="175" viewBox="0 0 166 175" fill="none" xmlns="http://www.w3.org/2000/svg">
<path d="M160.504 63.8813C153.031 43.0614 157.629 30.1373 159.952 25.5557L163.809 17.9524L156.071 14.2076C148.762 10.674 142.046 8.95995 135.537 8.95995C134.235 8.95995 132.916 9.03306 131.631 9.17115C127.7 9.60168 124.305 10.7877 121.306 11.8356C118.504 12.8185 116.082 13.6633 113.898 13.6633C108.031 13.6633 102.667 10.2434 100.236 4.95518L97.9614 0H67.4809L65.2066 4.95518C62.7758 10.2434 57.4114 13.6633 51.5444 13.6633C49.369 13.6633 46.9464 12.8185 44.1365 11.8356C41.137 10.7877 37.7421 9.59356 33.8115 9.17115C32.526 9.03306 31.2076 8.95995 29.9057 8.95995C23.3959 8.95995 16.6801 10.674 9.3711 14.2076L1.6418 17.9524L5.49821 25.5557C7.82194 30.1454 12.4282 43.0614 4.95435 63.8813C-2.28877 84.0107 -1.56364 105.131 6.95672 121.824C13.7878 135.212 24.9533 144.578 39.2583 148.907C62.0754 155.82 75.9271 168.964 76.0425 169.077L81.8189 174.739L87.8342 169.321C87.9825 169.191 103.046 155.918 126.201 148.899C140.506 144.57 151.671 135.203 158.502 121.816C167.014 105.123 167.748 84.0025 160.504 63.8813ZM154.679 119.924C148.383 132.255 138.108 140.89 124.94 144.87C100.664 152.222 85.1067 166.064 84.9501 166.202L81.9425 168.915L79.0584 166.088C78.9183 165.95 64.5804 152.165 40.5108 144.878C27.3512 140.89 17.0674 132.263 10.7719 119.932C2.77894 104.262 2.12797 84.3437 8.97557 65.2947C17.0015 42.9476 11.8844 28.7482 9.32166 23.6793L7.39345 19.8776L11.2663 18.0092C17.9739 14.7681 24.0716 13.1922 29.9139 13.1922C31.0675 13.1922 32.2211 13.2571 33.3501 13.379C36.7862 13.7527 39.8021 14.8087 42.7109 15.8322C45.7598 16.8964 48.6356 17.9036 51.5444 17.9036C59.0924 17.9036 65.9812 13.509 69.1042 6.71793L70.2414 4.24034H95.2009L96.3381 6.71793C99.4611 13.5171 106.35 17.9036 113.898 17.9036C116.815 17.9036 119.691 16.8964 122.731 15.8322C125.64 14.8087 128.656 13.7608 132.092 13.379C133.221 13.2571 134.375 13.1922 135.528 13.1922C141.371 13.1922 147.468 14.7681 154.176 18.0092L158.049 19.8776L156.121 23.6793C153.55 28.7482 148.441 42.9558 156.467 65.3028C163.323 84.3518 162.672 104.262 154.67 119.932L154.679 119.924Z" fill="white"/>
<path d="M152.437 66.6994C143.982 43.142 149.206 27.8784 152.297 21.786C146.133 18.8047 139.491 16.8064 132.57 17.5619C126.043 18.2767 120.555 22.1109 113.897 22.1109C104.347 22.1109 96.1396 16.4977 92.4398 8.43945H73.0012C69.3013 16.4896 61.1023 22.1109 51.5437 22.1109C44.8856 22.1109 39.3977 18.2767 32.8714 17.5619C25.9414 16.8064 19.3081 18.8047 13.1444 21.786C16.2345 27.8784 21.467 43.142 13.0043 66.6994C1.76472 97.9414 12.0567 131.848 41.7544 140.84C67.233 148.557 82.0571 163.09 82.0571 163.09C82.0571 163.09 98.1997 148.557 123.678 140.84C153.376 131.848 163.676 97.9414 152.428 66.6994H152.437ZM83.3426 17.5131C90.6022 17.5131 96.4857 23.3131 96.4857 30.4697C96.4857 37.6263 90.6022 43.4263 83.3426 43.4263C76.083 43.4263 70.1995 37.6263 70.1995 30.4697C70.1995 23.3131 76.083 17.5131 83.3426 17.5131ZM25.8178 110.102L26.2134 106.398C63.1871 103.254 80.8376 116.178 80.8376 116.178C80.8376 116.178 61.7039 97.3809 26.4523 102.011C26.4523 102.011 31.7013 45.4734 32.4594 45.6439L29.9956 95.1795C66.2937 95.5613 78.1678 111.052 80.887 115.991C80.7469 115.626 80.5821 115.285 80.4256 114.927C80.1207 114.204 79.7911 113.497 79.4532 112.815C79.3708 112.653 79.2884 112.49 79.206 112.336C76.7752 107.632 73.6192 103.863 70.0677 100.882C65.6509 97.1697 60.6491 94.6434 55.7462 92.9213C45.9404 89.477 36.5466 89.2739 33.0857 89.3308V34.2714C33.0857 34.2714 42.257 33.6459 52.8209 36.5621C58.1029 38.0243 63.7392 40.3638 68.7575 44.1168C68.8069 44.1574 68.8564 44.1899 68.9058 44.2305C76.5692 50.0224 80.9694 59.0717 80.9694 68.5921V87.5762C77.7146 72.6213 74.2619 58.6412 59.479 51.0053C49.4425 45.8227 39.8674 44.6529 39.8674 44.6529V44.791C39.7108 55.2131 47.094 64.7742 58.9022 69.705C59.0011 69.7456 59.1 69.7863 59.2071 69.835C63.8958 71.8252 68.6504 74.6764 72.6798 78.7868C72.721 78.8274 72.7622 78.868 72.7952 78.9087C77.0059 83.2465 79.7828 89.0384 80.9694 95.3745V116.146C80.9942 116.194 81.0189 116.243 81.0436 116.292C81.0601 116.324 81.0766 116.349 81.093 116.381C81.0683 116.349 81.0354 116.316 80.9942 116.276L80.9447 116.243C80.9447 116.243 80.9447 116.243 80.9447 116.251C80.9859 116.276 81.0106 116.3 81.0354 116.316C81.0024 116.3 80.953 116.268 80.8953 116.227C80.8788 116.211 80.8541 116.194 80.8294 116.178C59.1164 107.624 32.4017 109.306 25.8096 110.102H25.8178ZM57.6003 134.764L53.8757 132.1L50.1511 134.764L51.5767 130.451L47.8521 127.786H52.4584L53.8839 123.473L55.3095 127.786H59.9157L56.1912 130.451L57.6167 134.764H57.6003ZM87.7841 143.204L82.7164 139.581L77.6486 143.204L79.5851 137.339L74.5174 133.716H80.7799L82.7164 127.851L84.6528 133.716H90.9153L85.8476 137.339L87.7841 143.204ZM115.298 134.764L111.574 132.1L107.849 134.764L109.274 130.451L105.55 127.786H110.156L111.582 123.473L113.007 127.786H117.614L113.889 130.451L115.315 134.764H115.298ZM86.2844 116.178C86.2844 116.178 86.2432 116.211 86.2184 116.227C86.1608 116.268 86.1196 116.3 86.0784 116.316C86.1031 116.292 86.1278 116.276 86.169 116.251C86.169 116.251 86.169 116.251 86.169 116.243L86.1196 116.276C86.1196 116.276 86.0454 116.349 86.0207 116.381C86.0372 116.357 86.0536 116.324 86.0701 116.292C86.0948 116.243 86.1196 116.194 86.1443 116.146V95.3745C87.3309 89.0384 90.1078 83.2465 94.3186 78.9087C94.3597 78.868 94.4009 78.8274 94.4339 78.7868C98.4634 74.6764 103.226 71.8333 107.907 69.835C108.006 69.7944 108.104 69.7538 108.212 69.705C120.02 64.7661 127.395 55.205 127.246 44.791V44.6529C127.246 44.6529 117.671 45.8308 107.635 51.0053C92.8518 58.633 89.3992 72.6131 86.1443 87.5762V68.5921C86.1443 59.0717 90.5445 50.0224 98.2079 44.2305C98.2574 44.1899 98.3068 44.1574 98.3562 44.1168C103.375 40.3638 109.003 38.0243 114.293 36.5621C124.865 33.6459 134.028 34.2714 134.028 34.2714V89.3308C130.567 89.2658 121.165 89.477 111.368 92.9213C106.465 94.6434 101.463 97.1697 97.0461 100.882C93.4945 103.863 90.3385 107.632 87.9077 112.336C87.8253 112.498 87.7429 112.653 87.6605 112.815C87.3226 113.497 86.993 114.204 86.6881 114.927C86.5398 115.285 86.375 115.626 86.2267 115.991C88.9542 111.044 100.82 95.5613 137.118 95.1795L134.654 45.6439C135.404 45.4734 140.661 102.011 140.661 102.011C105.402 97.3809 86.2761 116.178 86.2761 116.178C86.2761 116.178 103.935 103.254 140.9 106.398L141.296 110.102C134.704 109.306 107.981 107.624 86.2761 116.178H86.2844ZM119.253 103.384C119.253 103.384 119.237 103.384 119.229 103.384H119.245H119.253Z" fill="white"/>
<path d="M86.1534 95.3593C87.34 89.0231 90.1169 83.2313 94.3277 78.8934C94.3689 78.8528 94.4101 78.8122 94.443 78.7716C98.4725 74.6612 103.235 71.8181 107.916 69.8198C108.015 69.7792 108.113 69.7385 108.221 69.6898C120.029 64.7509 127.404 55.1898 127.255 44.7758V44.6377C127.255 44.6377 117.68 45.8156 107.644 50.9901C92.8609 58.6178 89.4083 72.5979 86.1534 87.561V81.6391L86.0298 82.0778V102.11L86.1534 102.028V95.3593Z" fill="white"/>
<path d="M59.4788 50.9969C49.4423 45.8143 39.8672 44.6445 39.8672 44.6445V44.7826C39.7106 55.2048 47.0938 64.7658 58.902 69.6966C59.0009 69.7373 59.0998 69.7779 59.2069 69.8266C63.8956 71.8168 68.6502 74.6681 72.6796 78.7784C72.7208 78.819 72.762 78.8597 72.795 78.9003C77.0057 83.2381 79.7827 89.03 80.9693 95.3661V87.5678C77.7144 72.6129 74.2617 58.6328 59.4788 50.9969Z" fill="white"/>
</svg>
